<svg xmlns="http://www.w3.org/2000/svg" width="154.656" height="28.219"><path d="M14.531 20.503v2.436h6.174V9.877q0-4.746-2.436-7.182-2.52-2.52-7.6-2.52a21.507 21.507 0 00-8.738 1.806l1.6 4.872a18.1 18.1 0 016.216-1.218q4.83 0 4.83 4.116v.378a16.823 16.823 0 00-5.5-.924 10.937 10.937 0 00-6.615 1.806 6.246 6.246 0 00-2.457 5.376 6.323 6.323 0 002.2 5.124 8.3 8.3 0 005.526 1.848 8.694 8.694 0 006.8-2.856zm-7.389-2.284a2.373 2.373 0 01-.966-1.995 2.729 2.729 0 011.155-2.373 5.565 5.565 0 013.255-.819 9.552 9.552 0 014.074.84v1.134a3.479 3.479 0 01-1.386 2.835 5.591 5.591 0 01-3.612 1.113 4.049 4.049 0 01-2.52-.735zm25.368 4.725v-13.4l6.174 9.114 6.258-9.24v13.521h6.468V.427h-6.468l-6.174 9.45-6.09-9.45H26.21v22.512h6.3zm37.8-2.436v2.431h6.174V9.877q0-4.746-2.436-7.182-2.52-2.52-7.6-2.52a21.507 21.507 0 00-8.736 1.806l1.6 4.872a18.093 18.093 0 016.216-1.218q4.828 0 4.83 4.116v.378a16.828 16.828 0 00-5.5-.924 10.937 10.937 0 00-6.615 1.806 6.245 6.245 0 00-2.457 5.376 6.323 6.323 0 002.2 5.124 8.3 8.3 0 005.523 1.848 8.694 8.694 0 006.8-2.856zm-7.392-2.289a2.371 2.371 0 01-.966-1.995 2.727 2.727 0 011.155-2.373 5.563 5.563 0 013.255-.819 9.552 9.552 0 014.074.84v1.134a3.479 3.479 0 01-1.386 2.835 5.591 5.591 0 01-3.612 1.113 4.049 4.049 0 01-2.52-.735zM90.131 6.391v-.5h6.006v11.588h-7.686q1.594-3.821 1.68-11.088zm9.324 21.84h5.376l.756-10.752h-3.066V.427h-18.39v1.932q0 10.458-2.184 15.12h-2.436v10.752h5.376l.462-5.292h14.112v5.292zm29.483-8.988l-3.654-3.234a7.843 7.843 0 01-5.46 2.31 5.628 5.628 0 01-3.612-1.134 5.49 5.49 0 01-1.89-3.276h15.669q.084-1.175.084-1.68a13.5 13.5 0 00-2.814-8.694Q124.447.007 119.113.007a10.4 10.4 0 00-7.98 3.4 11.79 11.79 0 00-3.15 8.316 11.33 11.33 0 003.318 8.463 11.554 11.554 0 008.442 3.255 11.214 11.214 0 009.2-4.2zM115.9 6.412a4.359 4.359 0 013.213-1.281 4.237 4.237 0 013.213 1.3 6.08 6.08 0 011.533 3.486h-9.618a6.3 6.3 0 011.659-3.505zm34.8 15.981a13.717 13.717 0 003.948-3.066l-3.738-3.78a7.522 7.522 0 01-5.166 2.394 5.251 5.251 0 01-4.137-1.785 6.454 6.454 0 01-1.576-4.431 6.529 6.529 0 011.554-4.41 4.935 4.935 0 013.906-1.806 7.465 7.465 0 015.25 2.226l3.738-3.78a11.475 11.475 0 00-8.946-3.948 11.584 11.584 0 00-11.8 11.718 11.422 11.422 0 003.339 8.316 11.255 11.255 0 008.379 3.4 11.7 11.7 0 005.246-1.048z" fill="#222" fill-rule="evenodd"/></svg>